<svg xmlns="http://www.w3.org/2000/svg" xmlns:xlink="http://www.w3.org/1999/xlink" width="206" height="35" viewBox="0 0 206 35">
  <defs>
    <clipPath id="clip-path">
      <rect id="사각형_18" data-name="사각형 18" width="150.909" height="19.341" fill="#159770" stroke="#159770" stroke-width="1"/>
    </clipPath>
    <clipPath id="clip-path-2">
      <rect id="사각형_19" data-name="사각형 19" width="19.771" height="19.862" fill="none"/>
    </clipPath>
  </defs>
  <g id="img_logo" transform="translate(-857 -334)">
    <rect id="area" width="206" height="35" transform="translate(857 334)" fill="rgba(255,255,255,0)"/>
    <g id="그룹_31" data-name="그룹 31" transform="translate(885 342)">
      <g id="그룹_30" data-name="그룹 30" transform="translate(0 0)" clip-path="url(#clip-path)">
        <path id="패스_17" data-name="패스 17" d="M52.213,3.911H42.6V2.181h3.74V.192h2.158V2.181h3.719Zm-4.786,7.5c-2.416,0-4.125-1.326-4.125-3.334,0-1.989,1.709-3.334,4.125-3.334,2.436,0,4.145,1.345,4.145,3.334,0,2.008-1.709,3.334-4.145,3.334m0-1.6c1.281,0,2.179-.682,2.179-1.73s-.9-1.732-2.179-1.732c-1.3,0-2.16.684-2.16,1.732s.855,1.73,2.16,1.73m11.711,6.071c0,2.179-2.436,3.439-6.518,3.439s-6.54-1.26-6.54-3.439,2.457-3.42,6.54-3.42,6.518,1.238,6.518,3.42m-2.2,0c0-1.155-1.538-1.753-4.316-1.753-2.757,0-4.337.6-4.337,1.753s1.581,1.773,4.337,1.773c2.778,0,4.316-.62,4.316-1.773m-2.008-4.339H52.876V.364h2.051V5.045h2.008V0h2.1V12.182h-2.1V6.861H54.927Z" transform="translate(29.309 0)" fill="#159770"/>
        <path id="패스_18" data-name="패스 18" d="M70.815,9.573v1.794h-17.5V9.573h7.629V7.584H55.6V.276h2.179V2.242h8.591V.276h2.181V7.584H63.164V9.573Zm-15.537,3.42H68.656v6.134h-2.2v-4.36H55.279Zm2.5-7.16h8.591v-1.9H57.779Z" transform="translate(37.689 0.216)" fill="#159770"/>
        <path id="패스_19" data-name="패스 19" d="M70.015,5.022c0,3.484,1.219,6.647,4.018,8.1L72.75,14.812a8.268,8.268,0,0,1-3.74-4.9,8.855,8.855,0,0,1-3.8,5.556L63.86,13.828c2.8-1.625,4.018-4.981,4.018-8.806V3.954H64.395V2.137h8.847V3.954H70.015ZM80.7,0V19.32h-2.1V9.446H76.491v8.976H74.418V.364h2.072V7.63h2.115V0Z" transform="translate(45.936 0)" fill="#159770"/>
        <path id="패스_20" data-name="패스 20" d="M85.611,10.024a40.142,40.142,0,0,1-8.912.661H75.14V1.6h8.591V3.4H77.339V8.869a37.691,37.691,0,0,0,8.058-.62Zm-6.2,7.137H90.185v1.8H77.191v-6.39h2.222ZM92.152,5.535V7.351H89.415v6.625h-2.2V0h2.2V5.535Z" transform="translate(54.757 0)" fill="#159770"/>
        <path id="패스_21" data-name="패스 21" d="M0,8.379A7.723,7.723,0,0,1,7.97.428a7.235,7.235,0,0,1,7.438,5.465h-2.03a5.259,5.259,0,0,0-5.37-3.625A5.846,5.846,0,0,0,1.992,8.379,5.868,5.868,0,0,0,8.008,14.49a5.438,5.438,0,0,0,5.522-3.834h2.03A7.412,7.412,0,0,1,7.97,16.33,7.723,7.723,0,0,1,0,8.379" transform="translate(4.085 1.333)" fill="#159770" stroke="#159770" stroke-width="1"/>
        <path id="패스_22" data-name="패스 22" d="M13.194.655l5.864,10.323L24.922.655h1.745v15.2H24.675V4.641l-4.9,8.654H18.336l-4.9-8.654V15.857H11.447V.655Z" transform="translate(10.75 1.465)" fill="#159770" stroke="#159770" stroke-width="1"/>
        <path id="패스_23" data-name="패스 23" d="M30.374,10.771v5.086H28.363V10.771L22.4.655h2.258l4.782,8.256L34.379.655h2.144Z" transform="translate(17.131 1.465)" fill="#159770" stroke="#159770" stroke-width="1"/>
        <path id="패스_24" data-name="패스 24" d="M37.4,9.081l-2.733,3.036v3.739H32.676V.656h1.992V9.423l7.8-8.768h2.484L38.692,7.638l6.7,8.219H42.847Z" transform="translate(23.112 1.465)" fill="#159770" stroke="#159770" stroke-width="1"/>
      </g>
    </g>
    <g id="그룹_32" data-name="그룹 32" transform="translate(861.061 342)">
      <g id="그룹_32-2" data-name="그룹 32" transform="translate(0 0)" clip-path="url(#clip-path-2)">
        <path id="패스_25" data-name="패스 25" d="M17.86,15.609a53.278,53.278,0,0,0-5.428-6.174l-.341.295,5.4,6.462c-1.584,2.2-1.9,2.282-3.733.694-1.321-1.146-2.547-2.406-3.788-3.639a4.765,4.765,0,0,1-.577-.912c-.159.111-.317.223-.476.335a2.832,2.832,0,0,0,.411.848c1.488,1.452,3,2.876,4.516,4.3.261.245.56.452.853.687-1.743,1.3-2.667,1.4-4.271.2a40.179,40.179,0,0,1-3.067-2.788,1.845,1.845,0,0,0-.819-.53c.74,1.951,2.4,3.047,3.957,4.26-2.411.888-6.725-1.128-8.74-4.035A9.972,9.972,0,0,1,2.371,3.508C5.006.47,9.809-.877,12.722.6c-.017.034-.031.1-.046.1C10.167.705,8.755,2.288,7.543,4.211,7,5.076,6.332,5.863,5.551,6.92A2.134,2.134,0,0,0,8.285,7.961a7,7,0,0,0,2.242-1.288,2.453,2.453,0,0,1,3.119-.325,11.331,11.331,0,0,1,2.219,1.757A31.748,31.748,0,0,1,18.3,11.06c1.335,1.779,1.222,2.834-.443,4.55" transform="translate(0 0)" fill="#a0a001"/>
        <path id="패스_26" data-name="패스 26" d="M18.324,11.278a26.851,26.851,0,0,0-1.835-2.351A28.619,28.619,0,0,0,12.908,5.6c-1.471-1.061-2.659-.812-4.078.338A6.856,6.856,0,0,1,7.07,6.995a1.6,1.6,0,0,1-2.03-.574c1.147-1.411,2.275-2.815,3.427-4.2a2.386,2.386,0,0,1,.759-.6,6.12,6.12,0,0,1,6.461,1.066,9.466,9.466,0,0,1,2.637,8.6" transform="translate(1.23 0.274)" fill="#159770"/>
      </g>
    </g>
  </g>
</svg>
